# xmcd
#
# Track frame offsets: 
#        150
#        15576
#        36008
#        55632
#        80795
#        101260
#        125249
#        147091
#        166360
#        189746
#        209204
#        227225
#        246565
#        273218
#
# Disc length: 4254 seconds
#
# Revision: 0
# Processed by: cddbd v1.5.2PL0 Copyright (c) Steve Scherf et al.
# Submitted via: ExactAudioCopy v0.95b4
#
DISCID=cc109c0e
DTITLE=Luther Vandross - Luther Vandross
DYEAR=2001
DGENRE=R&B
TTITLE0=Take You Out
TTITLE1=Grown Thangs
TTITLE2=Bring Your Heart To Mine
TTITLE3=Can Heaven Wait
TTITLE4=Say It Now
TTITLE5=Hearts Get Broken All The Time (But The Problem...
TTITLE6=I'd Rather
TTITLE7=How Do I Tell Her
TTITLE8=Any Day Now
TTITLE9=If I Was The One
TTITLE10=Let's Make Tonight The Night
TTITLE11=Like I'm Invisible
TTITLE12=Are You There (With Another Guy)
TTITLE13=Love Forgot
EXTD=
EXTT0=
EXTT1=
EXTT2=
EXTT3=
EXTT4=
EXTT5=
EXTT6=
EXTT7=
EXTT8=
EXTT9=
EXTT10=
EXTT11=
EXTT12=
EXTT13=
PLAYORDER=
